<?xml version="1.0" encoding="UTF-8" standalone="no"?>
<svg version="1.1" id="Layer_1" xmlns="http://www.w3.org/2000/svg" xmlns:xlink="http://www.w3.org/1999/xlink" x="0px" y="0px"
	 viewBox="0 0 1446.024 1658.628" enable-background="new 0 0 1446.024 1658.628" xml:space="preserve">
<path
   id="path55"
   d="m 61.261266,1049.451 c 8.191,-1.121 16.431,-2.779 23.696,-6.875 -7.606,-20.673 -21.453,-38.42 -34.861,-55.631 0.195,-3.413 0.585,-10.288 0.78,-13.749 26.426,11.507 42.175,36.714 63.238004,54.949 20.562,8.535 94.522,-26.023 145.441,-29.156 15.261,-1.365 22.574,-16.333 30.961,-27.011 14.53,-4.291 29.547,-6.533 44.612,-7.46 -23.257,-31.009 -47.294,-62.214 -60.263,-99.22 -1.03,-59.889 -9.904,-55.48 7.509,-121.648 7.897,-34.692 40.995,-101.596 66.407,-113.749 30.59,-2.895 48.618,-16.23 79.083,-21.307 -10.288,-18.771 -27.889,-32.716 -35.885,-52.852 -24.128,-53.35 -6.922,-134.7 29.888,-168.893 27.158,-6.338 54.266,-13.798 79.864,-25.012 3.218,-0.049 9.654,-0.195 12.872,-0.244 3.803,-10.483 5.509,-21.502 6.68,-32.569 -2.877,-5.168 -5.753,-10.434 -8.581,-15.651 2.877,-5.851 5.802,-11.702 8.63,-17.601 -14.042,3.51 -21.55,14.188 -24.72,27.694 -5.9,1.511 -11.799,2.925 -17.796,4.291 1.316,-6.533 2.584,-13.018 3.901,-19.551 -5.168,-21.794 -1.268,-43.784 7.46,-64.018 18.723,-5.607 37.543,-10.775 56.509,-15.358 3.023,25.695 -4.291,52.657 4.339,77.474 0.146,1.999 0.439,5.997 0.585,7.996 -3.218,8.727 -6.29,17.504 -9.264,26.329 3.413,1.95 6.826,3.901 10.239,5.851 41.527,-14.151 56.538,-14.987 75.28,-22.087 5.934,-24.138 8.181,-71.955 32.277,-99.025 18.521,-3.478 124.357,-29.94 130.522,-31.009 -0.098,-8.825 -0.683,-17.699 0.926,-26.377 4.583,-3.315 9.264,-6.485 14.042,-9.459 3.413,-21.404 -2.877,-42.223 -2.877,-63.432 -7.118,5.51 -12.726,12.287 -14.091,21.453 -2.438,0.39 -7.362,1.121 -9.8,1.463 -5.948,3.413 -11.945,6.728 -17.894,10.141 6.972,-16.529 6.046,-34.52 5.851,-52.072 14.578,-11.458 20.185,-30.57 35.787,-40.858 9.264,-1.463 18.381,-3.657 27.45,-5.9 -0.049,18.576 -0.146,37.201 0.293,55.778 14.862,25.563 13.208,-7.409 -0.878,69.381 10.531,6.29 19.454,14.676 22.477,27.011 56.363,-7.85 111.702,-21.843 167.86903,-30.766 0.098,3.267 0.293,9.751 0.341,13.018 -28.33103,25.214 -64.12203,56.81 -58.70303,124.427 -3.791,80.672 14.161,129.112 49.43903,178.84 15.261,-3.023 30.717,-4.681 46.075,-6.68 -8.24,11.263 -16.919,22.233 -24.768,33.74 18.332,-5.168 36.714,-10.483 54.607,-17.114 21.94,-22.379 17.016,-55.388 16.138,-83.91 -4.827,-2.877 -9.556,-5.948 -14.188,-9.166 1.365,-7.07 3.608,-13.993 5.071,-21.014 -12.384,9.751 -13.506,27.743 -26.329,37.64 -3.462,-0.097 -10.385,-0.244 -13.798,-0.341 1.268,-3.754 2.584,-7.46 3.852,-11.165 -3.998,-14.773 -3.51,-30.132 -3.364,-45.246 8.971,-8.971 18.333,-17.65 29.205,-24.232 0.098,-2.925 0.244,-8.727 0.341,-11.653 -2.438,-0.195 -7.362,-0.536 -9.849,-0.731 -0.098,-5.705 -0.195,-11.458 -0.293,-17.162 8.922,-17.162 25.256,-27.596 42.126,-35.739 5.607,-0.098 11.214,-0.244 16.821,-0.341 -3.023,33.35 -0.829,66.943 -4.486,100.293 5.461,5.656 10.922,11.312 16.382,17.016 -0.878,2.925 -2.535,8.776 -3.364,11.75 -21.258,12.969 -11.165,40.029 -13.847,60.41 7.655,4.096 14.92,12.579 24.476,9.898 41.102,-7.362 79.083,-25.744 119.795,-34.91 -12.849,27.747 -38.753,33.354 -77.279,106.387 -53.54,115.23 -33.998,226.662 18.771,291.955 43.671,-57.052 151.19,-302.538 183.472,-311.561 -20.458,87.001 -64.537,146.39 -90.492,469.624 -18.125,114.828 35.615,184.041 76.987,203.169 -2.633,-14.334 -12.921,-24.915 -22.331,-35.251 3.657,-10.775 7.411,-21.502 11.214,-32.179 -5.217,-7.021 -10.288,-14.091 -15.456,-21.16 15.651,-7.265 24.573,-22.233 37.055,-33.301 0.585,3.998 1.804,11.994 2.389,15.992 7.947,6.192 16.09,12.141 24.476,17.747 -0.39,2.292 -1.17,6.875 -1.511,9.118 -7.411,16.187 0.829,34.276 -3.998,51.146 -20.269,22.112 -13.314,-3.294 -14.334,198.586 -14.92,29.254 -36.226,55.046 -48.659,85.568 22.101,46.704 19.086,-4.016 0,102.194 -33.952,126.378 195.808,89.393 -945.05103,63.237 0.937,-80.898 -114.213,-250.357 -151.975,-254.218 -51.826,-8.781 -137.985,-37.468 -177.377004,-84.593 -12.384,-21.599 -28.961,-40.615 -38.81,-63.628 -4.291,-11.458 -8.045,-23.111 -12.628,-34.471 -3.152,-31.887 12.409,-101.708 35.299,-113.26 z M 1137.5173,846.769 c -1.609,23.306 -2.438,46.66 -2.584,70.063 5.363,6.338 10.678,13.067 18.284,16.919 0.131,-0.236 37.164,-67.733 37.299,-67.967 0.097,-2.682 0.341,-8.045 0.488,-10.727 -40.694,-8.034 -2.767,-2.491 -53.487,-8.288 z m 224.134,415.651 c -0.049,-7.314 -0.097,-14.627 -0.146,-21.892 -2.438,-2.048 -7.265,-6.192 -9.703,-8.24 -0.146,12.482 -0.244,25.012 -0.585,37.494 2.633,-1.853 7.801,-5.509 10.434,-7.362 z m -39.152,16.87 c 2.438,-1.706 7.411,-5.022 9.849,-6.728 -0.049,-9.605 -0.098,-19.259 -0.146,-28.864 h -9.703 z m -14.188,3.413 c 0.146,-13.164 0.439,-27.157 -9.459,-37.25 -0.731,12.384 -0.829,24.817 -0.829,37.25 z m -44.32,4.778 c 2.438,0.097 7.314,0.341 9.751,0.439 v -29.595 c -2.438,0 -7.313,-0.049 -9.751,-0.049 z m -19.307,11.506 c -0.049,-11.945 -0.146,-23.891 -0.244,-35.787 h -9.654 c -0.049,9.313 -0.098,18.674 -0.195,28.035 2.535,1.95 7.557,5.802 10.093,7.752 z m -27.158,6.631 c 4.729,-12.969 3.364,-27.011 3.559,-40.517 -17.259,7.46 -3.461,27.256 -3.559,40.517 z m -31.497,4.778 c 12.823,-8.581 9.508,-24.232 9.995,-37.445 -2.438,0 -7.411,0 -9.849,-0.049 -0.487,12.482 -1.608,25.062 -0.146,37.494 z m -19.356,3.609 c 2.925,-13.311 7.07,-28.328 -2.877,-39.834 -6.485,9.313 -6.485,20.575 -7.167,31.399 2.535,2.096 7.509,6.338 10.044,8.435 z m 202.828,-110.093 c 1.901,-1.804 5.656,-5.461 7.509,-7.265 -67.865,-53.992 -218.879,-55.377 -239.2,-35.056 -1.219,33.74 -1.219,67.674 0.683,101.414 42.038,4.221 202.461,-51.948 231.008,-59.093 z m -228.523,116.382 c 1.073,-11.506 1.268,-22.964 1.316,-34.471 -2.438,2.145 -7.411,6.387 -9.849,8.532 1.61,8.972 2.536,18.528 8.533,25.939 z m -24.719,-276.499 c 2.243,-19.503 0.195,-39.103 1.073,-58.654 l -3.949,0.439 c 1.267,19.356 -3.56,39.395 2.876,58.215 z M 981.34927,470.465 c -48.275,-25.994 -108.158,-37.69 -146.416,-36.324 0.049,12.823 -0.975,25.744 0.975,38.469 4.047,6.143 8.971,11.75 13.554,17.552 0.146,6.241 0.244,12.531 0.244,18.82 9.472,-4.06 108.31,-27.173 109.312,-27.401 6.777,-4.144 23.062,-0.292 22.331,-11.116 z m 107.11803,369.332 c -9.361,-0.78 -19.064,-0.731 -27.791,-4.778 -23.793,-1.609 -47.879,-2.194 -71.33103,2.73 13.31103,41.199 47.29403,69.43 77.42603,98.391 9.508,1.365 14.822,-10.678 20.185,-16.87 3.9,-26.182 0.585,-53.047 1.511,-79.473 z m 3.169,103.364 c -4.388,-6.875 -18.138,-0.975 -12.433,6.826 4.389,6.68 18.187,0.829 12.433,-6.826 z m -0.585,244.808 c -14.871,3.803 -24.232,16.09 -32.082,28.376 0.195,4.924 0.341,9.849 0.536,14.822 10.19,14.334 20.478,28.864 34.715,39.59 -1.219,-8.142 -2.584,-16.187 -4.047,-24.281 5.461,-19.112 2.926,-39.102 0.878,-58.507 z m -11.555,141.881 c 7.606,-8.63 9.654,-19.698 9.898,-30.766 -2.73,-1.999 -8.191,-6.046 -10.922,-8.045 -0.049,12.922 0.098,25.891 1.024,38.811 z m -25.158,-3.217 c 2.438,0 7.313,-0.049 9.751,-0.049 v -29.254 h -9.751 z m 26.084,-49.537 c -44.261,-42.928 -34.766,-4.892 -36.47,0.878 12.19,-0.098 24.33,-0.293 36.47,-0.878 z m -33.398,-88.299 c 0.843,-3.371 7.834,-66.568 45.978,-133.203 0.683,-27.645 0.244,-55.339 0.341,-83.033 -13.213,-10.044 -25.207,-21.599 -38.518,-31.448 -76.73203,48.535 -49.376,174.527 -33.301,212.287 3.657,8.142 6.923,16.431 9.459,25.012 3.949,6.143 7.119,15.31 16.041,10.385 z m -16.626,144.028 c 2.535,-2.048 7.557,-6.143 10.093,-8.191 -0.488,-10.044 -1.511,-20.137 -6.192,-29.157 -1.853,1.95 -5.607,5.9 -7.46,7.85 1.365,9.8 2.438,19.649 3.559,29.498 z m -200.43903,32.764 c 12.433,0 24.866,0 37.299,0.049 7.46,-8.094 14.871,-16.187 22.233,-24.378 18.482,0.866 92.536,-2.949 105.851,-15.651 13.21303,-10.239 8.77603,-28.669 14.57803,-42.662 7.508,-0.78 15.7,0.878 22.721,-2.34 2.145,-10.531 3.169,-21.258 6.241,-31.546 -40.21203,-39.995 -137.69903,-58.571 -208.87403,-53.389 -0.244,56.655 0.146,113.262 -0.049,169.917 z m 16.187,-433.74 c 65.432,-0.78 130.912,0.585 196.34303,-0.731 -21.16,-26.914 -57.09403,-35.739 -83.42303,-56.753 -19.55,-4.116 -18.254,-3.466 -33.886,-9.751 -42.67,-12.267 -68.641,-14.974 -90.297,-20.722 -13.531,72.595 0.523,74.655 11.263,87.957 z M 649.65727,532.24 c -2.877,-0.293 -8.581,-0.975 -11.458,-1.316 -23.824,-11.848 -66.539,-18.82 -95.807,-18.82 v 36.909 c 4.096,4.193 8.094,8.435 12.14,12.677 30.898,-1.683 68.453,-13.232 78.742,-19.405 5.461,-0.39 10.922,-0.829 16.382,-1.17 v -8.875 z m -107.119,386.933 c 3.901,5.899 7.655,11.848 11.36,17.845 24.037,-2.925 51.195,6.095 72.794,-7.07 -46.722,-29.03 -55.265,-56.137 -66.358,-81.18 h -17.942 c 0,23.501 -0.097,46.953 0.146,70.405 z m 119.162,-50.61 c -4.876,-0.098 -9.751,-0.244 -14.627,-0.341 -5.656,5.705 -11.36,11.36 -17.211,16.967 -0.293,14.091 -0.195,28.474 4.924,41.833 36.129,1.609 72.599,0.341 107.509,-10.044 -7.996,-10.336 -18.966,-17.455 -31.448,-21.258 -20.98,-13.477 -14.932,-8.338 -49.147,-27.157 z m 8.679,-412.725 c 0.926,-1.463 2.828,-4.437 3.754,-5.948 -4.388,-2.535 -8.825,-5.022 -13.262,-7.509 -5.168,20.868 -7.557,42.418 -1.17,63.286 19.431,30.492 41.056,46.404 76.012,32.131 5.51,-0.536 11.019,-1.073 16.48,-1.511 -0.146,-3.364 -0.39,-10.044 -0.536,-13.359 -3.072,-0.244 -9.166,-0.78 -12.189,-1.024 -23.453,-21.6 -42.81,-47.782 -69.089,-66.066 z m 120.721,20.526 c -0.049,-13.749 0,-27.45 0,-41.199 -4.291,-0.975 -8.581,-1.95 -12.872,-2.925 -9.898,1.073 -19.795,1.804 -29.742,2.34 -16.919,14.529 -26.865,38.371 -18.674,60.117 7.996,15.748 25.744,22.477 39.493,32.179 6.095,-0.049 12.189,-0.146 18.284,-0.146 -5.461,-11.604 -10.873,-23.354 -12.335,-36.226 5.315,-4.681 10.58,-9.459 15.846,-14.14 z m -4.924,361.531 c -23.501,-0.683 -46.953,0.634 -70.453,1.755 14.237,30.375 38.177,57.533 70.161,69.576 0.535,-23.793 0.243,-47.538 0.292,-71.331 z m -31.4,104.925 c 8.142,-1.999 16.187,-4.291 24.135,-6.826 -1.853,-5.071 -4.096,-9.946 -6.68,-14.627 -10.58,1.365 -14.578,12.725 -17.455,21.453 z m -217.552,398.634 c 26.478,19.151 225.812,25.149 239.493,24.476 7.688,-18.252 4.131,-133.336 3.998,-135.397 -9.579,-11.824 -83.286,-21.292 -98.489,-22.233 -24.52,-9.404 -138.834,-8.542 -139.834,-8.581 -10.19,46.465 -2.291,94.588 -5.168,141.735 z m -33.593,-822.038 c -12.384,2.584 -24.768,5.412 -37.104,8.191 -14.871,7.996 -24.037,21.941 -31.887,36.372 -0.049,12.482 4.096,24.232 9.898,35.105 21.468,-5.619 26.319,-6.545 39.395,-10.141 -0.049,-5.51 -0.146,-11.019 -0.244,-16.529 6.143,-5.022 12.287,-9.995 18.528,-14.773 0.585,-12.774 1.072,-25.499 1.414,-38.225 z m -10.532,328.474 c -21.843,5.656 -45.393,3.852 -65.87,14.432 -2.243,0.39 -6.777,1.073 -9.069,1.463 -26.231,13.262 -47.684,34.13 -60.8,60.556 -0.146,5.022 -0.292,10.044 -0.439,15.115 4.827,6.582 9.751,13.164 14.822,19.6 18.918,-3.51 38.957,0 57.143,-7.021 12.628,-0.975 25.353,-0.146 37.884,-1.755 8.289,-11.702 19.356,-20.868 28.913,-31.253 6.875,-23.16 -2.633,-47.538 -2.584,-71.137 z m -5.266,363.14 c -1.365,-1.463 -4.096,-4.339 -5.461,-5.753 -37.989,-3.993 -66.058,3.299 -101.219,13.847 0.146,3.072 0.488,9.117 0.634,12.141 28.181,34.958 57.582,70.356 97.611,92.345 6.212,-19.601 11.176,-86.188 8.435,-112.58 z m -59.775,109.264 c 8.679,1.999 17.309,4.047 26.036,5.851 -18.453,-18.077 -46.93,-30.105 -80.059,-47.489 -29.032,-6.177 -19.95,-8.045 -48.464,-11.214 12.765,20.978 9.63,27.478 102.487,52.852 z m -245.978,-18.527 c 7.752,7.509 15.992,14.53 25.744,19.356 20.478,4.193 40.419,11.214 61.433,12.287 0.049,-14.188 0.146,-28.328 0.39,-42.467 3.998,-5.705 7.899,-11.458 11.653,-17.26 -10.922,-6.582 -20.722,-14.627 -29.254,-24.086 -19.698,2.73 -39.688,4.193 -59.044,9.166 -3.413,3.706 -6.875,7.362 -10.385,11.068 -1.511,5.315 -3.12,10.58 -4.778,15.846 1.413,5.363 2.876,10.726 4.241,16.09 z"
   fill="#291f1e" />
</svg>
