<?xml version="1.0" encoding="utf-8"?>

<!DOCTYPE svg PUBLIC "-//W3C//DTD SVG 1.1//EN" "http://www.w3.org/Graphics/SVG/1.1/DTD/svg11.dtd">
<svg version="1.1" id="Layer_1" xmlns="http://www.w3.org/2000/svg" xmlns:xlink="http://www.w3.org/1999/xlink" x="0px" y="0px"
	 viewBox="0 0 1446.024 1658.628" enable-background="new 0 0 1446.024 1658.628" xml:space="preserve">
<path fill="#291f1e" d="M1384.601,1049.451c-8.191-1.121-16.431-2.779-23.696-6.875c7.606-20.673,21.453-38.42,34.861-55.631
	c-0.195-3.413-0.585-10.288-0.78-13.749c-26.426,11.507-42.175,36.714-63.238,54.949c-20.562,8.535-94.522-26.023-145.441-29.156
	c-15.261-1.365-22.574-16.333-30.961-27.011c-14.53-4.291-29.547-6.533-44.612-7.46c23.257-31.009,47.294-62.214,60.263-99.22
	c1.03-59.889,9.904-55.48-7.509-121.648c-7.897-34.692-40.995-101.596-66.407-113.749c-30.59-2.895-48.618-16.23-79.083-21.307
	c10.288-18.771,27.889-32.716,35.885-52.852c24.128-53.35,6.922-134.7-29.888-168.893c-27.158-6.338-54.266-13.798-79.864-25.012
	c-3.218-0.049-9.654-0.195-12.872-0.244c-3.803-10.483-5.509-21.502-6.68-32.569c2.877-5.168,5.753-10.434,8.581-15.651
	c-2.877-5.851-5.802-11.702-8.63-17.601c14.042,3.51,21.55,14.188,24.72,27.694c5.9,1.511,11.799,2.925,17.796,4.291
	c-1.316-6.533-2.584-13.018-3.901-19.551c5.168-21.794,1.268-43.784-7.46-64.018c-18.723-5.607-37.543-10.775-56.509-15.358
	c-3.023,25.695,4.291,52.657-4.339,77.474c-0.146,1.999-0.439,5.997-0.585,7.996c3.218,8.727,6.29,17.504,9.264,26.329
	c-3.413,1.95-6.826,3.901-10.239,5.851c-41.527-14.151-56.538-14.987-75.28-22.087c-5.934-24.138-8.181-71.955-32.277-99.025
	c-18.521-3.478-124.357-29.94-130.522-31.009c0.098-8.825,0.683-17.699-0.926-26.377c-4.583-3.315-9.264-6.485-14.042-9.459
	c-3.413-21.404,2.877-42.223,2.877-63.432c7.118,5.51,12.726,12.287,14.091,21.453c2.438,0.39,7.362,1.121,9.8,1.463
	c5.948,3.413,11.945,6.728,17.894,10.141c-6.972-16.529-6.046-34.52-5.851-52.072c-14.578-11.458-20.185-30.57-35.787-40.858
	c-9.264-1.463-18.381-3.657-27.45-5.9c0.049,18.576,0.146,37.201-0.293,55.778c-14.862,25.563-13.208-7.409,0.878,69.381
	c-10.531,6.29-19.454,14.676-22.477,27.011c-56.363-7.85-111.702-21.843-167.869-30.766c-0.098,3.267-0.293,9.751-0.341,13.018
	c28.331,25.214,64.122,56.81,58.703,124.427c3.791,80.672-14.161,129.112-49.439,178.84c-15.261-3.023-30.717-4.681-46.075-6.68
	c8.24,11.263,16.919,22.233,24.768,33.74c-18.332-5.168-36.714-10.483-54.607-17.114c-21.94-22.379-17.016-55.388-16.138-83.91
	c4.827-2.877,9.556-5.948,14.188-9.166c-1.365-7.07-3.608-13.993-5.071-21.014c12.384,9.751,13.506,27.743,26.329,37.64
	c3.462-0.097,10.385-0.244,13.798-0.341c-1.268-3.754-2.584-7.46-3.852-11.165c3.998-14.773,3.51-30.132,3.364-45.246
	c-8.971-8.971-18.333-17.65-29.205-24.232c-0.098-2.925-0.244-8.727-0.341-11.653c2.438-0.195,7.362-0.536,9.849-0.731
	c0.098-5.705,0.195-11.458,0.293-17.162c-8.922-17.162-25.256-27.596-42.126-35.739c-5.607-0.098-11.214-0.244-16.821-0.341
	c3.023,33.35,0.829,66.943,4.486,100.293c-5.461,5.656-10.922,11.312-16.382,17.016c0.878,2.925,2.535,8.776,3.364,11.75
	c21.258,12.969,11.165,40.029,13.847,60.41c-7.655,4.096-14.92,12.579-24.476,9.898c-41.102-7.362-79.083-25.744-119.795-34.91
	c12.849,27.747,38.753,33.354,77.279,106.387c53.54,115.23,33.998,226.662-18.771,291.955
	C189.2,759.64,81.681,514.154,49.399,505.131c20.458,87.001,64.537,146.39,90.492,469.624
	c18.125,114.828-35.615,184.041-76.987,203.169c2.633-14.334,12.921-24.915,22.331-35.251c-3.657-10.775-7.411-21.502-11.214-32.179
	c5.217-7.021,10.288-14.091,15.456-21.16c-15.651-7.265-24.573-22.233-37.055-33.301c-0.585,3.998-1.804,11.994-2.389,15.992
	c-7.947,6.192-16.09,12.141-24.476,17.747c0.39,2.292,1.17,6.875,1.511,9.118c7.411,16.187-0.829,34.276,3.998,51.146
	c20.269,22.112,13.314-3.294,14.334,198.586c14.92,29.254,36.226,55.046,48.659,85.568c-22.101,46.704-19.086-4.016,0,102.194
	c33.952,126.378-195.808,89.393,945.051,63.237c-0.937-80.898,114.213-250.357,151.975-254.218
	c51.826-8.781,137.985-37.468,177.377-84.593c12.384-21.599,28.961-40.615,38.81-63.628c4.291-11.458,8.045-23.111,12.628-34.471
	C1423.052,1130.824,1407.491,1061.003,1384.601,1049.451z M308.345,846.769c1.609,23.306,2.438,46.66,2.584,70.063
	c-5.363,6.338-10.678,13.067-18.284,16.919c-0.131-0.236-37.164-67.733-37.299-67.967c-0.097-2.682-0.341-8.045-0.488-10.727
	C295.552,847.023,257.625,852.566,308.345,846.769z M84.211,1262.42c0.049-7.314,0.097-14.627,0.146-21.892
	c2.438-2.048,7.265-6.192,9.703-8.24c0.146,12.482,0.244,25.012,0.585,37.494C92.012,1267.929,86.844,1264.273,84.211,1262.42z
	 M123.363,1279.29c-2.438-1.706-7.411-5.022-9.849-6.728c0.049-9.605,0.098-19.259,0.146-28.864h9.703V1279.29z M137.551,1282.703
	c-0.146-13.164-0.439-27.157,9.459-37.25c0.731,12.384,0.829,24.817,0.829,37.25H137.551z M181.871,1287.481
	c-2.438,0.097-7.314,0.341-9.751,0.439v-29.595c2.438,0,7.313-0.049,9.751-0.049V1287.481z M201.178,1298.987
	c0.049-11.945,0.146-23.891,0.244-35.787h9.654c0.049,9.313,0.098,18.674,0.195,28.035
	C208.736,1293.185,203.714,1297.037,201.178,1298.987z M228.336,1305.618c-4.729-12.969-3.364-27.011-3.559-40.517
	C242.036,1272.561,228.238,1292.357,228.336,1305.618z M259.833,1310.396c-12.823-8.581-9.508-24.232-9.995-37.445
	c2.438,0,7.411,0,9.849-0.049C260.174,1285.384,261.295,1297.964,259.833,1310.396z M279.189,1314.005
	c-2.925-13.311-7.07-28.328,2.877-39.834c6.485,9.313,6.485,20.575,7.167,31.399
	C286.698,1307.666,281.724,1311.908,279.189,1314.005z M76.361,1203.912c-1.901-1.804-5.656-5.461-7.509-7.265
	c67.865-53.992,218.879-55.377,239.2-35.056c1.219,33.74,1.219,67.674-0.683,101.414
	C265.331,1267.226,104.908,1211.057,76.361,1203.912z M304.884,1320.294c-1.073-11.506-1.268-22.964-1.316-34.471
	c2.438,2.145,7.411,6.387,9.849,8.532C311.807,1303.327,310.881,1312.883,304.884,1320.294z M329.603,1043.795
	c-2.243-19.503-0.195-39.103-1.073-58.654l3.949,0.439C331.212,1004.936,336.039,1024.975,329.603,1043.795z M464.513,470.465
	c48.275-25.994,108.158-37.69,146.416-36.324c-0.049,12.823,0.975,25.744-0.975,38.469c-4.047,6.143-8.971,11.75-13.554,17.552
	c-0.146,6.241-0.244,12.531-0.244,18.82c-9.472-4.06-108.31-27.173-109.312-27.401C480.067,477.437,463.782,481.289,464.513,470.465
	z M357.395,839.797c9.361-0.78,19.064-0.731,27.791-4.778c23.793-1.609,47.879-2.194,71.331,2.73
	c-13.311,41.199-47.294,69.43-77.426,98.391c-9.508,1.365-14.822-10.678-20.185-16.87
	C355.006,893.088,358.321,866.223,357.395,839.797z M354.226,943.161c4.388-6.875,18.138-0.975,12.433,6.826
	C362.27,956.667,348.472,950.816,354.226,943.161z M354.811,1187.969c14.871,3.803,24.232,16.09,32.082,28.376
	c-0.195,4.924-0.341,9.849-0.536,14.822c-10.19,14.334-20.478,28.864-34.715,39.59c1.219-8.142,2.584-16.187,4.047-24.281
	C350.228,1227.364,352.763,1207.374,354.811,1187.969z M366.366,1329.85c-7.606-8.63-9.654-19.698-9.898-30.766
	c2.73-1.999,8.191-6.046,10.922-8.045C367.439,1303.961,367.292,1316.93,366.366,1329.85z M391.524,1326.633
	c-2.438,0-7.313-0.049-9.751-0.049v-29.254h9.751V1326.633z M365.44,1277.096c44.261-42.928,34.766-4.892,36.47,0.878
	C389.72,1277.876,377.58,1277.681,365.44,1277.096z M398.838,1188.797c-0.843-3.371-7.834-66.568-45.978-133.203
	c-0.683-27.645-0.244-55.339-0.341-83.033c13.213-10.044,25.207-21.599,38.518-31.448c76.732,48.535,49.376,174.527,33.301,212.287
	c-3.657,8.142-6.923,16.431-9.459,25.012C410.93,1184.555,407.76,1193.722,398.838,1188.797z M415.464,1332.825
	c-2.535-2.048-7.557-6.143-10.093-8.191c0.488-10.044,1.511-20.137,6.192-29.157c1.853,1.95,5.607,5.9,7.46,7.85
	C417.658,1313.127,416.585,1322.976,415.464,1332.825z M615.903,1365.589c-12.433,0-24.866,0-37.299,0.049
	c-7.46-8.094-14.871-16.187-22.233-24.378c-18.482,0.866-92.536-2.949-105.851-15.651c-13.213-10.239-8.776-28.669-14.578-42.662
	c-7.508-0.78-15.7,0.878-22.721-2.34c-2.145-10.531-3.169-21.258-6.241-31.546c40.212-39.995,137.699-58.571,208.874-53.389
	C616.098,1252.327,615.708,1308.934,615.903,1365.589z M599.716,931.849c-65.432-0.78-130.912,0.585-196.343-0.731
	c21.16-26.914,57.094-35.739,83.423-56.753c19.55-4.116,18.254-3.466,33.886-9.751c42.67-12.267,68.641-14.974,90.297-20.722
	C624.51,916.487,610.456,918.547,599.716,931.849z M796.205,532.24c2.877-0.293,8.581-0.975,11.458-1.316
	c23.824-11.848,66.539-18.82,95.807-18.82v36.909c-4.096,4.193-8.094,8.435-12.14,12.677c-30.898-1.683-68.453-13.232-78.742-19.405
	c-5.461-0.39-10.922-0.829-16.382-1.17V532.24z M903.324,919.173c-3.901,5.899-7.655,11.848-11.36,17.845
	c-24.037-2.925-51.195,6.095-72.794-7.07c46.722-29.03,55.265-56.137,66.358-81.18h17.942
	C903.47,872.269,903.567,895.721,903.324,919.173z M784.162,868.563c4.876-0.098,9.751-0.244,14.627-0.341
	c5.656,5.705,11.36,11.36,17.211,16.967c0.293,14.091,0.195,28.474-4.924,41.833c-36.129,1.609-72.599,0.341-107.509-10.044
	c7.996-10.336,18.966-17.455,31.448-21.258C755.995,882.243,749.947,887.382,784.162,868.563z M775.483,455.838
	c-0.926-1.463-2.828-4.437-3.754-5.948c4.388-2.535,8.825-5.022,13.262-7.509c5.168,20.868,7.557,42.418,1.17,63.286
	c-19.431,30.492-41.056,46.404-76.012,32.131c-5.51-0.536-11.019-1.073-16.48-1.511c0.146-3.364,0.39-10.044,0.536-13.359
	c3.072-0.244,9.166-0.78,12.189-1.024C729.847,500.304,749.204,474.122,775.483,455.838z M654.762,476.364
	c0.049-13.749,0-27.45,0-41.199c4.291-0.975,8.581-1.95,12.872-2.925c9.898,1.073,19.795,1.804,29.742,2.34
	c16.919,14.529,26.865,38.371,18.674,60.117c-7.996,15.748-25.744,22.477-39.493,32.179c-6.095-0.049-12.189-0.146-18.284-0.146
	c5.461-11.604,10.873-23.354,12.335-36.226C665.293,485.823,660.028,481.045,654.762,476.364z M659.686,837.895
	c23.501-0.683,46.953,0.634,70.453,1.755c-14.237,30.375-38.177,57.533-70.161,69.576
	C659.443,885.433,659.735,861.688,659.686,837.895z M691.086,942.82c-8.142-1.999-16.187-4.291-24.135-6.826
	c1.853-5.071,4.096-9.946,6.68-14.627C684.211,922.732,688.209,934.092,691.086,942.82z M908.638,1341.454
	c-26.478,19.151-225.812,25.149-239.493,24.476c-7.688-18.252-4.131-133.336-3.998-135.397
	c9.579-11.824,83.286-21.292,98.489-22.233c24.52-9.404,138.834-8.542,139.834-8.581
	C913.66,1246.184,905.761,1294.307,908.638,1341.454z M942.231,519.416c12.384,2.584,24.768,5.412,37.104,8.191
	c14.871,7.996,24.037,21.941,31.887,36.372c0.049,12.482-4.096,24.232-9.898,35.105c-21.468-5.619-26.319-6.545-39.395-10.141
	c0.049-5.51,0.146-11.019,0.244-16.529c-6.143-5.022-12.287-9.995-18.528-14.773C943.06,544.867,942.573,532.142,942.231,519.416z
	 M952.763,847.89c21.843,5.656,45.393,3.852,65.87,14.432c2.243,0.39,6.777,1.073,9.069,1.463
	c26.231,13.262,47.684,34.13,60.8,60.556c0.146,5.022,0.292,10.044,0.439,15.115c-4.827,6.582-9.751,13.164-14.822,19.6
	c-18.918-3.51-38.957,0-57.143-7.021c-12.628-0.975-25.353-0.146-37.884-1.755c-8.289-11.702-19.356-20.868-28.913-31.253
	C943.304,895.867,952.812,871.489,952.763,847.89z M958.029,1211.03c1.365-1.463,4.096-4.339,5.461-5.753
	c37.989-3.993,66.058,3.299,101.219,13.847c-0.146,3.072-0.488,9.117-0.634,12.141c-28.181,34.958-57.582,70.356-97.611,92.345
	C960.252,1304.009,955.288,1237.422,958.029,1211.03z M1017.804,1320.294c-8.679,1.999-17.309,4.047-26.036,5.851
	c18.453-18.077,46.93-30.105,80.059-47.489c29.032-6.177,19.95-8.045,48.464-11.214
	C1107.526,1288.42,1110.661,1294.92,1017.804,1320.294z M1263.782,1301.767c-7.752,7.509-15.992,14.53-25.744,19.356
	c-20.478,4.193-40.419,11.214-61.433,12.287c-0.049-14.188-0.146-28.328-0.39-42.467c-3.998-5.705-7.899-11.458-11.653-17.26
	c10.922-6.582,20.722-14.627,29.254-24.086c19.698,2.73,39.688,4.193,59.044,9.166c3.413,3.706,6.875,7.362,10.385,11.068
	c1.511,5.315,3.12,10.58,4.778,15.846C1266.61,1291.04,1265.147,1296.403,1263.782,1301.767z"/>
</svg>
